%TF.GenerationSoftware,KiCad,Pcbnew,9.0.7*%
%TF.CreationDate,2026-02-28T12:18:52-06:00*%
%TF.ProjectId,trailer-switch-panel-eight-buttons,74726169-6c65-4722-9d73-77697463682d,rev?*%
%TF.SameCoordinates,Original*%
%TF.FileFunction,Legend,Bot*%
%TF.FilePolarity,Positive*%
%FSLAX46Y46*%
G04 Gerber Fmt 4.6, Leading zero omitted, Abs format (unit mm)*
G04 Created by KiCad (PCBNEW 9.0.7) date 2026-02-28 12:18:52*
%MOMM*%
%LPD*%
G01*
G04 APERTURE LIST*
%ADD10C,0.360000*%
%ADD11C,0.150000*%
%ADD12C,0.120000*%
%ADD13C,0.000000*%
G04 APERTURE END LIST*
D10*
X82350885Y-79324394D02*
X81322314Y-79324394D01*
X81836599Y-81124394D02*
X81836599Y-79324394D01*
X80722313Y-81124394D02*
X80722313Y-79924394D01*
X80722313Y-80267251D02*
X80636599Y-80095822D01*
X80636599Y-80095822D02*
X80550885Y-80010108D01*
X80550885Y-80010108D02*
X80379456Y-79924394D01*
X80379456Y-79924394D02*
X80208027Y-79924394D01*
X78836599Y-81124394D02*
X78836599Y-80181537D01*
X78836599Y-80181537D02*
X78922313Y-80010108D01*
X78922313Y-80010108D02*
X79093741Y-79924394D01*
X79093741Y-79924394D02*
X79436599Y-79924394D01*
X79436599Y-79924394D02*
X79608027Y-80010108D01*
X78836599Y-81038680D02*
X79008027Y-81124394D01*
X79008027Y-81124394D02*
X79436599Y-81124394D01*
X79436599Y-81124394D02*
X79608027Y-81038680D01*
X79608027Y-81038680D02*
X79693741Y-80867251D01*
X79693741Y-80867251D02*
X79693741Y-80695822D01*
X79693741Y-80695822D02*
X79608027Y-80524394D01*
X79608027Y-80524394D02*
X79436599Y-80438680D01*
X79436599Y-80438680D02*
X79008027Y-80438680D01*
X79008027Y-80438680D02*
X78836599Y-80352965D01*
X77979456Y-81124394D02*
X77979456Y-79924394D01*
X77979456Y-79324394D02*
X78065170Y-79410108D01*
X78065170Y-79410108D02*
X77979456Y-79495822D01*
X77979456Y-79495822D02*
X77893742Y-79410108D01*
X77893742Y-79410108D02*
X77979456Y-79324394D01*
X77979456Y-79324394D02*
X77979456Y-79495822D01*
X76865170Y-81124394D02*
X77036599Y-81038680D01*
X77036599Y-81038680D02*
X77122313Y-80867251D01*
X77122313Y-80867251D02*
X77122313Y-79324394D01*
X75150885Y-80952965D02*
X75236599Y-81038680D01*
X75236599Y-81038680D02*
X75493742Y-81124394D01*
X75493742Y-81124394D02*
X75665170Y-81124394D01*
X75665170Y-81124394D02*
X75922313Y-81038680D01*
X75922313Y-81038680D02*
X76093742Y-80867251D01*
X76093742Y-80867251D02*
X76179456Y-80695822D01*
X76179456Y-80695822D02*
X76265170Y-80352965D01*
X76265170Y-80352965D02*
X76265170Y-80095822D01*
X76265170Y-80095822D02*
X76179456Y-79752965D01*
X76179456Y-79752965D02*
X76093742Y-79581537D01*
X76093742Y-79581537D02*
X75922313Y-79410108D01*
X75922313Y-79410108D02*
X75665170Y-79324394D01*
X75665170Y-79324394D02*
X75493742Y-79324394D01*
X75493742Y-79324394D02*
X75236599Y-79410108D01*
X75236599Y-79410108D02*
X75150885Y-79495822D01*
X73608028Y-79924394D02*
X73608028Y-81124394D01*
X74379456Y-79924394D02*
X74379456Y-80867251D01*
X74379456Y-80867251D02*
X74293742Y-81038680D01*
X74293742Y-81038680D02*
X74122313Y-81124394D01*
X74122313Y-81124394D02*
X73865170Y-81124394D01*
X73865170Y-81124394D02*
X73693742Y-81038680D01*
X73693742Y-81038680D02*
X73608028Y-80952965D01*
X72750885Y-81124394D02*
X72750885Y-79924394D01*
X72750885Y-80267251D02*
X72665171Y-80095822D01*
X72665171Y-80095822D02*
X72579457Y-80010108D01*
X72579457Y-80010108D02*
X72408028Y-79924394D01*
X72408028Y-79924394D02*
X72236599Y-79924394D01*
X71636599Y-81124394D02*
X71636599Y-79924394D01*
X71636599Y-80267251D02*
X71550885Y-80095822D01*
X71550885Y-80095822D02*
X71465171Y-80010108D01*
X71465171Y-80010108D02*
X71293742Y-79924394D01*
X71293742Y-79924394D02*
X71122313Y-79924394D01*
X69836599Y-81038680D02*
X70008027Y-81124394D01*
X70008027Y-81124394D02*
X70350885Y-81124394D01*
X70350885Y-81124394D02*
X70522313Y-81038680D01*
X70522313Y-81038680D02*
X70608027Y-80867251D01*
X70608027Y-80867251D02*
X70608027Y-80181537D01*
X70608027Y-80181537D02*
X70522313Y-80010108D01*
X70522313Y-80010108D02*
X70350885Y-79924394D01*
X70350885Y-79924394D02*
X70008027Y-79924394D01*
X70008027Y-79924394D02*
X69836599Y-80010108D01*
X69836599Y-80010108D02*
X69750885Y-80181537D01*
X69750885Y-80181537D02*
X69750885Y-80352965D01*
X69750885Y-80352965D02*
X70608027Y-80524394D01*
X68979456Y-79924394D02*
X68979456Y-81124394D01*
X68979456Y-80095822D02*
X68893742Y-80010108D01*
X68893742Y-80010108D02*
X68722313Y-79924394D01*
X68722313Y-79924394D02*
X68465170Y-79924394D01*
X68465170Y-79924394D02*
X68293742Y-80010108D01*
X68293742Y-80010108D02*
X68208028Y-80181537D01*
X68208028Y-80181537D02*
X68208028Y-81124394D01*
X67608028Y-79924394D02*
X66922314Y-79924394D01*
X67350885Y-79324394D02*
X67350885Y-80867251D01*
X67350885Y-80867251D02*
X67265171Y-81038680D01*
X67265171Y-81038680D02*
X67093742Y-81124394D01*
X67093742Y-81124394D02*
X66922314Y-81124394D01*
D11*
X88709457Y-109585219D02*
X89042790Y-109109028D01*
X89280885Y-109585219D02*
X89280885Y-108585219D01*
X89280885Y-108585219D02*
X88899933Y-108585219D01*
X88899933Y-108585219D02*
X88804695Y-108632838D01*
X88804695Y-108632838D02*
X88757076Y-108680457D01*
X88757076Y-108680457D02*
X88709457Y-108775695D01*
X88709457Y-108775695D02*
X88709457Y-108918552D01*
X88709457Y-108918552D02*
X88757076Y-109013790D01*
X88757076Y-109013790D02*
X88804695Y-109061409D01*
X88804695Y-109061409D02*
X88899933Y-109109028D01*
X88899933Y-109109028D02*
X89280885Y-109109028D01*
X87757076Y-109585219D02*
X88328504Y-109585219D01*
X88042790Y-109585219D02*
X88042790Y-108585219D01*
X88042790Y-108585219D02*
X88138028Y-108728076D01*
X88138028Y-108728076D02*
X88233266Y-108823314D01*
X88233266Y-108823314D02*
X88328504Y-108870933D01*
X87138028Y-108585219D02*
X87042790Y-108585219D01*
X87042790Y-108585219D02*
X86947552Y-108632838D01*
X86947552Y-108632838D02*
X86899933Y-108680457D01*
X86899933Y-108680457D02*
X86852314Y-108775695D01*
X86852314Y-108775695D02*
X86804695Y-108966171D01*
X86804695Y-108966171D02*
X86804695Y-109204266D01*
X86804695Y-109204266D02*
X86852314Y-109394742D01*
X86852314Y-109394742D02*
X86899933Y-109489980D01*
X86899933Y-109489980D02*
X86947552Y-109537600D01*
X86947552Y-109537600D02*
X87042790Y-109585219D01*
X87042790Y-109585219D02*
X87138028Y-109585219D01*
X87138028Y-109585219D02*
X87233266Y-109537600D01*
X87233266Y-109537600D02*
X87280885Y-109489980D01*
X87280885Y-109489980D02*
X87328504Y-109394742D01*
X87328504Y-109394742D02*
X87376123Y-109204266D01*
X87376123Y-109204266D02*
X87376123Y-108966171D01*
X87376123Y-108966171D02*
X87328504Y-108775695D01*
X87328504Y-108775695D02*
X87280885Y-108680457D01*
X87280885Y-108680457D02*
X87233266Y-108632838D01*
X87233266Y-108632838D02*
X87138028Y-108585219D01*
X67092194Y-105945219D02*
X67092194Y-104945219D01*
X67092194Y-104945219D02*
X66854099Y-104945219D01*
X66854099Y-104945219D02*
X66711242Y-104992838D01*
X66711242Y-104992838D02*
X66616004Y-105088076D01*
X66616004Y-105088076D02*
X66568385Y-105183314D01*
X66568385Y-105183314D02*
X66520766Y-105373790D01*
X66520766Y-105373790D02*
X66520766Y-105516647D01*
X66520766Y-105516647D02*
X66568385Y-105707123D01*
X66568385Y-105707123D02*
X66616004Y-105802361D01*
X66616004Y-105802361D02*
X66711242Y-105897600D01*
X66711242Y-105897600D02*
X66854099Y-105945219D01*
X66854099Y-105945219D02*
X67092194Y-105945219D01*
X66187432Y-104945219D02*
X65520766Y-104945219D01*
X65520766Y-104945219D02*
X65949337Y-105945219D01*
X94932194Y-105945219D02*
X94932194Y-104945219D01*
X94932194Y-104945219D02*
X94694099Y-104945219D01*
X94694099Y-104945219D02*
X94551242Y-104992838D01*
X94551242Y-104992838D02*
X94456004Y-105088076D01*
X94456004Y-105088076D02*
X94408385Y-105183314D01*
X94408385Y-105183314D02*
X94360766Y-105373790D01*
X94360766Y-105373790D02*
X94360766Y-105516647D01*
X94360766Y-105516647D02*
X94408385Y-105707123D01*
X94408385Y-105707123D02*
X94456004Y-105802361D01*
X94456004Y-105802361D02*
X94551242Y-105897600D01*
X94551242Y-105897600D02*
X94694099Y-105945219D01*
X94694099Y-105945219D02*
X94932194Y-105945219D01*
X93789337Y-105373790D02*
X93884575Y-105326171D01*
X93884575Y-105326171D02*
X93932194Y-105278552D01*
X93932194Y-105278552D02*
X93979813Y-105183314D01*
X93979813Y-105183314D02*
X93979813Y-105135695D01*
X93979813Y-105135695D02*
X93932194Y-105040457D01*
X93932194Y-105040457D02*
X93884575Y-104992838D01*
X93884575Y-104992838D02*
X93789337Y-104945219D01*
X93789337Y-104945219D02*
X93598861Y-104945219D01*
X93598861Y-104945219D02*
X93503623Y-104992838D01*
X93503623Y-104992838D02*
X93456004Y-105040457D01*
X93456004Y-105040457D02*
X93408385Y-105135695D01*
X93408385Y-105135695D02*
X93408385Y-105183314D01*
X93408385Y-105183314D02*
X93456004Y-105278552D01*
X93456004Y-105278552D02*
X93503623Y-105326171D01*
X93503623Y-105326171D02*
X93598861Y-105373790D01*
X93598861Y-105373790D02*
X93789337Y-105373790D01*
X93789337Y-105373790D02*
X93884575Y-105421409D01*
X93884575Y-105421409D02*
X93932194Y-105469028D01*
X93932194Y-105469028D02*
X93979813Y-105564266D01*
X93979813Y-105564266D02*
X93979813Y-105754742D01*
X93979813Y-105754742D02*
X93932194Y-105849980D01*
X93932194Y-105849980D02*
X93884575Y-105897600D01*
X93884575Y-105897600D02*
X93789337Y-105945219D01*
X93789337Y-105945219D02*
X93598861Y-105945219D01*
X93598861Y-105945219D02*
X93503623Y-105897600D01*
X93503623Y-105897600D02*
X93456004Y-105849980D01*
X93456004Y-105849980D02*
X93408385Y-105754742D01*
X93408385Y-105754742D02*
X93408385Y-105564266D01*
X93408385Y-105564266D02*
X93456004Y-105469028D01*
X93456004Y-105469028D02*
X93503623Y-105421409D01*
X93503623Y-105421409D02*
X93598861Y-105373790D01*
X32261419Y-105593733D02*
X31785228Y-105260400D01*
X32261419Y-105022305D02*
X31261419Y-105022305D01*
X31261419Y-105022305D02*
X31261419Y-105403257D01*
X31261419Y-105403257D02*
X31309038Y-105498495D01*
X31309038Y-105498495D02*
X31356657Y-105546114D01*
X31356657Y-105546114D02*
X31451895Y-105593733D01*
X31451895Y-105593733D02*
X31594752Y-105593733D01*
X31594752Y-105593733D02*
X31689990Y-105546114D01*
X31689990Y-105546114D02*
X31737609Y-105498495D01*
X31737609Y-105498495D02*
X31785228Y-105403257D01*
X31785228Y-105403257D02*
X31785228Y-105022305D01*
X31689990Y-106165162D02*
X31642371Y-106069924D01*
X31642371Y-106069924D02*
X31594752Y-106022305D01*
X31594752Y-106022305D02*
X31499514Y-105974686D01*
X31499514Y-105974686D02*
X31451895Y-105974686D01*
X31451895Y-105974686D02*
X31356657Y-106022305D01*
X31356657Y-106022305D02*
X31309038Y-106069924D01*
X31309038Y-106069924D02*
X31261419Y-106165162D01*
X31261419Y-106165162D02*
X31261419Y-106355638D01*
X31261419Y-106355638D02*
X31309038Y-106450876D01*
X31309038Y-106450876D02*
X31356657Y-106498495D01*
X31356657Y-106498495D02*
X31451895Y-106546114D01*
X31451895Y-106546114D02*
X31499514Y-106546114D01*
X31499514Y-106546114D02*
X31594752Y-106498495D01*
X31594752Y-106498495D02*
X31642371Y-106450876D01*
X31642371Y-106450876D02*
X31689990Y-106355638D01*
X31689990Y-106355638D02*
X31689990Y-106165162D01*
X31689990Y-106165162D02*
X31737609Y-106069924D01*
X31737609Y-106069924D02*
X31785228Y-106022305D01*
X31785228Y-106022305D02*
X31880466Y-105974686D01*
X31880466Y-105974686D02*
X32070942Y-105974686D01*
X32070942Y-105974686D02*
X32166180Y-106022305D01*
X32166180Y-106022305D02*
X32213800Y-106069924D01*
X32213800Y-106069924D02*
X32261419Y-106165162D01*
X32261419Y-106165162D02*
X32261419Y-106355638D01*
X32261419Y-106355638D02*
X32213800Y-106450876D01*
X32213800Y-106450876D02*
X32166180Y-106498495D01*
X32166180Y-106498495D02*
X32070942Y-106546114D01*
X32070942Y-106546114D02*
X31880466Y-106546114D01*
X31880466Y-106546114D02*
X31785228Y-106498495D01*
X31785228Y-106498495D02*
X31737609Y-106450876D01*
X31737609Y-106450876D02*
X31689990Y-106355638D01*
X123389932Y-94017600D02*
X123247075Y-94065219D01*
X123247075Y-94065219D02*
X123008980Y-94065219D01*
X123008980Y-94065219D02*
X122913742Y-94017600D01*
X122913742Y-94017600D02*
X122866123Y-93969980D01*
X122866123Y-93969980D02*
X122818504Y-93874742D01*
X122818504Y-93874742D02*
X122818504Y-93779504D01*
X122818504Y-93779504D02*
X122866123Y-93684266D01*
X122866123Y-93684266D02*
X122913742Y-93636647D01*
X122913742Y-93636647D02*
X123008980Y-93589028D01*
X123008980Y-93589028D02*
X123199456Y-93541409D01*
X123199456Y-93541409D02*
X123294694Y-93493790D01*
X123294694Y-93493790D02*
X123342313Y-93446171D01*
X123342313Y-93446171D02*
X123389932Y-93350933D01*
X123389932Y-93350933D02*
X123389932Y-93255695D01*
X123389932Y-93255695D02*
X123342313Y-93160457D01*
X123342313Y-93160457D02*
X123294694Y-93112838D01*
X123294694Y-93112838D02*
X123199456Y-93065219D01*
X123199456Y-93065219D02*
X122961361Y-93065219D01*
X122961361Y-93065219D02*
X122818504Y-93112838D01*
X122485170Y-93065219D02*
X122247075Y-94065219D01*
X122247075Y-94065219D02*
X122056599Y-93350933D01*
X122056599Y-93350933D02*
X121866123Y-94065219D01*
X121866123Y-94065219D02*
X121628028Y-93065219D01*
X121104218Y-93493790D02*
X121199456Y-93446171D01*
X121199456Y-93446171D02*
X121247075Y-93398552D01*
X121247075Y-93398552D02*
X121294694Y-93303314D01*
X121294694Y-93303314D02*
X121294694Y-93255695D01*
X121294694Y-93255695D02*
X121247075Y-93160457D01*
X121247075Y-93160457D02*
X121199456Y-93112838D01*
X121199456Y-93112838D02*
X121104218Y-93065219D01*
X121104218Y-93065219D02*
X120913742Y-93065219D01*
X120913742Y-93065219D02*
X120818504Y-93112838D01*
X120818504Y-93112838D02*
X120770885Y-93160457D01*
X120770885Y-93160457D02*
X120723266Y-93255695D01*
X120723266Y-93255695D02*
X120723266Y-93303314D01*
X120723266Y-93303314D02*
X120770885Y-93398552D01*
X120770885Y-93398552D02*
X120818504Y-93446171D01*
X120818504Y-93446171D02*
X120913742Y-93493790D01*
X120913742Y-93493790D02*
X121104218Y-93493790D01*
X121104218Y-93493790D02*
X121199456Y-93541409D01*
X121199456Y-93541409D02*
X121247075Y-93589028D01*
X121247075Y-93589028D02*
X121294694Y-93684266D01*
X121294694Y-93684266D02*
X121294694Y-93874742D01*
X121294694Y-93874742D02*
X121247075Y-93969980D01*
X121247075Y-93969980D02*
X121199456Y-94017600D01*
X121199456Y-94017600D02*
X121104218Y-94065219D01*
X121104218Y-94065219D02*
X120913742Y-94065219D01*
X120913742Y-94065219D02*
X120818504Y-94017600D01*
X120818504Y-94017600D02*
X120770885Y-93969980D01*
X120770885Y-93969980D02*
X120723266Y-93874742D01*
X120723266Y-93874742D02*
X120723266Y-93684266D01*
X120723266Y-93684266D02*
X120770885Y-93589028D01*
X120770885Y-93589028D02*
X120818504Y-93541409D01*
X120818504Y-93541409D02*
X120913742Y-93493790D01*
X116603266Y-54075219D02*
X116936599Y-53599028D01*
X117174694Y-54075219D02*
X117174694Y-53075219D01*
X117174694Y-53075219D02*
X116793742Y-53075219D01*
X116793742Y-53075219D02*
X116698504Y-53122838D01*
X116698504Y-53122838D02*
X116650885Y-53170457D01*
X116650885Y-53170457D02*
X116603266Y-53265695D01*
X116603266Y-53265695D02*
X116603266Y-53408552D01*
X116603266Y-53408552D02*
X116650885Y-53503790D01*
X116650885Y-53503790D02*
X116698504Y-53551409D01*
X116698504Y-53551409D02*
X116793742Y-53599028D01*
X116793742Y-53599028D02*
X117174694Y-53599028D01*
X116269932Y-53075219D02*
X115650885Y-53075219D01*
X115650885Y-53075219D02*
X115984218Y-53456171D01*
X115984218Y-53456171D02*
X115841361Y-53456171D01*
X115841361Y-53456171D02*
X115746123Y-53503790D01*
X115746123Y-53503790D02*
X115698504Y-53551409D01*
X115698504Y-53551409D02*
X115650885Y-53646647D01*
X115650885Y-53646647D02*
X115650885Y-53884742D01*
X115650885Y-53884742D02*
X115698504Y-53979980D01*
X115698504Y-53979980D02*
X115746123Y-54027600D01*
X115746123Y-54027600D02*
X115841361Y-54075219D01*
X115841361Y-54075219D02*
X116127075Y-54075219D01*
X116127075Y-54075219D02*
X116222313Y-54027600D01*
X116222313Y-54027600D02*
X116269932Y-53979980D01*
X44653266Y-50485219D02*
X44986599Y-50009028D01*
X45224694Y-50485219D02*
X45224694Y-49485219D01*
X45224694Y-49485219D02*
X44843742Y-49485219D01*
X44843742Y-49485219D02*
X44748504Y-49532838D01*
X44748504Y-49532838D02*
X44700885Y-49580457D01*
X44700885Y-49580457D02*
X44653266Y-49675695D01*
X44653266Y-49675695D02*
X44653266Y-49818552D01*
X44653266Y-49818552D02*
X44700885Y-49913790D01*
X44700885Y-49913790D02*
X44748504Y-49961409D01*
X44748504Y-49961409D02*
X44843742Y-50009028D01*
X44843742Y-50009028D02*
X45224694Y-50009028D01*
X44319932Y-49485219D02*
X43653266Y-49485219D01*
X43653266Y-49485219D02*
X44081837Y-50485219D01*
X39869932Y-94017600D02*
X39727075Y-94065219D01*
X39727075Y-94065219D02*
X39488980Y-94065219D01*
X39488980Y-94065219D02*
X39393742Y-94017600D01*
X39393742Y-94017600D02*
X39346123Y-93969980D01*
X39346123Y-93969980D02*
X39298504Y-93874742D01*
X39298504Y-93874742D02*
X39298504Y-93779504D01*
X39298504Y-93779504D02*
X39346123Y-93684266D01*
X39346123Y-93684266D02*
X39393742Y-93636647D01*
X39393742Y-93636647D02*
X39488980Y-93589028D01*
X39488980Y-93589028D02*
X39679456Y-93541409D01*
X39679456Y-93541409D02*
X39774694Y-93493790D01*
X39774694Y-93493790D02*
X39822313Y-93446171D01*
X39822313Y-93446171D02*
X39869932Y-93350933D01*
X39869932Y-93350933D02*
X39869932Y-93255695D01*
X39869932Y-93255695D02*
X39822313Y-93160457D01*
X39822313Y-93160457D02*
X39774694Y-93112838D01*
X39774694Y-93112838D02*
X39679456Y-93065219D01*
X39679456Y-93065219D02*
X39441361Y-93065219D01*
X39441361Y-93065219D02*
X39298504Y-93112838D01*
X38965170Y-93065219D02*
X38727075Y-94065219D01*
X38727075Y-94065219D02*
X38536599Y-93350933D01*
X38536599Y-93350933D02*
X38346123Y-94065219D01*
X38346123Y-94065219D02*
X38108028Y-93065219D01*
X37250885Y-93065219D02*
X37727075Y-93065219D01*
X37727075Y-93065219D02*
X37774694Y-93541409D01*
X37774694Y-93541409D02*
X37727075Y-93493790D01*
X37727075Y-93493790D02*
X37631837Y-93446171D01*
X37631837Y-93446171D02*
X37393742Y-93446171D01*
X37393742Y-93446171D02*
X37298504Y-93493790D01*
X37298504Y-93493790D02*
X37250885Y-93541409D01*
X37250885Y-93541409D02*
X37203266Y-93636647D01*
X37203266Y-93636647D02*
X37203266Y-93874742D01*
X37203266Y-93874742D02*
X37250885Y-93969980D01*
X37250885Y-93969980D02*
X37298504Y-94017600D01*
X37298504Y-94017600D02*
X37393742Y-94065219D01*
X37393742Y-94065219D02*
X37631837Y-94065219D01*
X37631837Y-94065219D02*
X37727075Y-94017600D01*
X37727075Y-94017600D02*
X37774694Y-93969980D01*
X122772194Y-109585219D02*
X122772194Y-108585219D01*
X122772194Y-108585219D02*
X122534099Y-108585219D01*
X122534099Y-108585219D02*
X122391242Y-108632838D01*
X122391242Y-108632838D02*
X122296004Y-108728076D01*
X122296004Y-108728076D02*
X122248385Y-108823314D01*
X122248385Y-108823314D02*
X122200766Y-109013790D01*
X122200766Y-109013790D02*
X122200766Y-109156647D01*
X122200766Y-109156647D02*
X122248385Y-109347123D01*
X122248385Y-109347123D02*
X122296004Y-109442361D01*
X122296004Y-109442361D02*
X122391242Y-109537600D01*
X122391242Y-109537600D02*
X122534099Y-109585219D01*
X122534099Y-109585219D02*
X122772194Y-109585219D01*
X121724575Y-109585219D02*
X121534099Y-109585219D01*
X121534099Y-109585219D02*
X121438861Y-109537600D01*
X121438861Y-109537600D02*
X121391242Y-109489980D01*
X121391242Y-109489980D02*
X121296004Y-109347123D01*
X121296004Y-109347123D02*
X121248385Y-109156647D01*
X121248385Y-109156647D02*
X121248385Y-108775695D01*
X121248385Y-108775695D02*
X121296004Y-108680457D01*
X121296004Y-108680457D02*
X121343623Y-108632838D01*
X121343623Y-108632838D02*
X121438861Y-108585219D01*
X121438861Y-108585219D02*
X121629337Y-108585219D01*
X121629337Y-108585219D02*
X121724575Y-108632838D01*
X121724575Y-108632838D02*
X121772194Y-108680457D01*
X121772194Y-108680457D02*
X121819813Y-108775695D01*
X121819813Y-108775695D02*
X121819813Y-109013790D01*
X121819813Y-109013790D02*
X121772194Y-109109028D01*
X121772194Y-109109028D02*
X121724575Y-109156647D01*
X121724575Y-109156647D02*
X121629337Y-109204266D01*
X121629337Y-109204266D02*
X121438861Y-109204266D01*
X121438861Y-109204266D02*
X121343623Y-109156647D01*
X121343623Y-109156647D02*
X121296004Y-109109028D01*
X121296004Y-109109028D02*
X121248385Y-109013790D01*
X72823266Y-50485219D02*
X73156599Y-50009028D01*
X73394694Y-50485219D02*
X73394694Y-49485219D01*
X73394694Y-49485219D02*
X73013742Y-49485219D01*
X73013742Y-49485219D02*
X72918504Y-49532838D01*
X72918504Y-49532838D02*
X72870885Y-49580457D01*
X72870885Y-49580457D02*
X72823266Y-49675695D01*
X72823266Y-49675695D02*
X72823266Y-49818552D01*
X72823266Y-49818552D02*
X72870885Y-49913790D01*
X72870885Y-49913790D02*
X72918504Y-49961409D01*
X72918504Y-49961409D02*
X73013742Y-50009028D01*
X73013742Y-50009028D02*
X73394694Y-50009028D01*
X71966123Y-49485219D02*
X72156599Y-49485219D01*
X72156599Y-49485219D02*
X72251837Y-49532838D01*
X72251837Y-49532838D02*
X72299456Y-49580457D01*
X72299456Y-49580457D02*
X72394694Y-49723314D01*
X72394694Y-49723314D02*
X72442313Y-49913790D01*
X72442313Y-49913790D02*
X72442313Y-50294742D01*
X72442313Y-50294742D02*
X72394694Y-50389980D01*
X72394694Y-50389980D02*
X72347075Y-50437600D01*
X72347075Y-50437600D02*
X72251837Y-50485219D01*
X72251837Y-50485219D02*
X72061361Y-50485219D01*
X72061361Y-50485219D02*
X71966123Y-50437600D01*
X71966123Y-50437600D02*
X71918504Y-50389980D01*
X71918504Y-50389980D02*
X71870885Y-50294742D01*
X71870885Y-50294742D02*
X71870885Y-50056647D01*
X71870885Y-50056647D02*
X71918504Y-49961409D01*
X71918504Y-49961409D02*
X71966123Y-49913790D01*
X71966123Y-49913790D02*
X72061361Y-49866171D01*
X72061361Y-49866171D02*
X72251837Y-49866171D01*
X72251837Y-49866171D02*
X72347075Y-49913790D01*
X72347075Y-49913790D02*
X72394694Y-49961409D01*
X72394694Y-49961409D02*
X72442313Y-50056647D01*
X100263266Y-50475219D02*
X100596599Y-49999028D01*
X100834694Y-50475219D02*
X100834694Y-49475219D01*
X100834694Y-49475219D02*
X100453742Y-49475219D01*
X100453742Y-49475219D02*
X100358504Y-49522838D01*
X100358504Y-49522838D02*
X100310885Y-49570457D01*
X100310885Y-49570457D02*
X100263266Y-49665695D01*
X100263266Y-49665695D02*
X100263266Y-49808552D01*
X100263266Y-49808552D02*
X100310885Y-49903790D01*
X100310885Y-49903790D02*
X100358504Y-49951409D01*
X100358504Y-49951409D02*
X100453742Y-49999028D01*
X100453742Y-49999028D02*
X100834694Y-49999028D01*
X99358504Y-49475219D02*
X99834694Y-49475219D01*
X99834694Y-49475219D02*
X99882313Y-49951409D01*
X99882313Y-49951409D02*
X99834694Y-49903790D01*
X99834694Y-49903790D02*
X99739456Y-49856171D01*
X99739456Y-49856171D02*
X99501361Y-49856171D01*
X99501361Y-49856171D02*
X99406123Y-49903790D01*
X99406123Y-49903790D02*
X99358504Y-49951409D01*
X99358504Y-49951409D02*
X99310885Y-50046647D01*
X99310885Y-50046647D02*
X99310885Y-50284742D01*
X99310885Y-50284742D02*
X99358504Y-50379980D01*
X99358504Y-50379980D02*
X99406123Y-50427600D01*
X99406123Y-50427600D02*
X99501361Y-50475219D01*
X99501361Y-50475219D02*
X99739456Y-50475219D01*
X99739456Y-50475219D02*
X99834694Y-50427600D01*
X99834694Y-50427600D02*
X99882313Y-50379980D01*
X95549932Y-94017600D02*
X95407075Y-94065219D01*
X95407075Y-94065219D02*
X95168980Y-94065219D01*
X95168980Y-94065219D02*
X95073742Y-94017600D01*
X95073742Y-94017600D02*
X95026123Y-93969980D01*
X95026123Y-93969980D02*
X94978504Y-93874742D01*
X94978504Y-93874742D02*
X94978504Y-93779504D01*
X94978504Y-93779504D02*
X95026123Y-93684266D01*
X95026123Y-93684266D02*
X95073742Y-93636647D01*
X95073742Y-93636647D02*
X95168980Y-93589028D01*
X95168980Y-93589028D02*
X95359456Y-93541409D01*
X95359456Y-93541409D02*
X95454694Y-93493790D01*
X95454694Y-93493790D02*
X95502313Y-93446171D01*
X95502313Y-93446171D02*
X95549932Y-93350933D01*
X95549932Y-93350933D02*
X95549932Y-93255695D01*
X95549932Y-93255695D02*
X95502313Y-93160457D01*
X95502313Y-93160457D02*
X95454694Y-93112838D01*
X95454694Y-93112838D02*
X95359456Y-93065219D01*
X95359456Y-93065219D02*
X95121361Y-93065219D01*
X95121361Y-93065219D02*
X94978504Y-93112838D01*
X94645170Y-93065219D02*
X94407075Y-94065219D01*
X94407075Y-94065219D02*
X94216599Y-93350933D01*
X94216599Y-93350933D02*
X94026123Y-94065219D01*
X94026123Y-94065219D02*
X93788028Y-93065219D01*
X93502313Y-93065219D02*
X92835647Y-93065219D01*
X92835647Y-93065219D02*
X93264218Y-94065219D01*
X67709932Y-94017600D02*
X67567075Y-94065219D01*
X67567075Y-94065219D02*
X67328980Y-94065219D01*
X67328980Y-94065219D02*
X67233742Y-94017600D01*
X67233742Y-94017600D02*
X67186123Y-93969980D01*
X67186123Y-93969980D02*
X67138504Y-93874742D01*
X67138504Y-93874742D02*
X67138504Y-93779504D01*
X67138504Y-93779504D02*
X67186123Y-93684266D01*
X67186123Y-93684266D02*
X67233742Y-93636647D01*
X67233742Y-93636647D02*
X67328980Y-93589028D01*
X67328980Y-93589028D02*
X67519456Y-93541409D01*
X67519456Y-93541409D02*
X67614694Y-93493790D01*
X67614694Y-93493790D02*
X67662313Y-93446171D01*
X67662313Y-93446171D02*
X67709932Y-93350933D01*
X67709932Y-93350933D02*
X67709932Y-93255695D01*
X67709932Y-93255695D02*
X67662313Y-93160457D01*
X67662313Y-93160457D02*
X67614694Y-93112838D01*
X67614694Y-93112838D02*
X67519456Y-93065219D01*
X67519456Y-93065219D02*
X67281361Y-93065219D01*
X67281361Y-93065219D02*
X67138504Y-93112838D01*
X66805170Y-93065219D02*
X66567075Y-94065219D01*
X66567075Y-94065219D02*
X66376599Y-93350933D01*
X66376599Y-93350933D02*
X66186123Y-94065219D01*
X66186123Y-94065219D02*
X65948028Y-93065219D01*
X65138504Y-93065219D02*
X65328980Y-93065219D01*
X65328980Y-93065219D02*
X65424218Y-93112838D01*
X65424218Y-93112838D02*
X65471837Y-93160457D01*
X65471837Y-93160457D02*
X65567075Y-93303314D01*
X65567075Y-93303314D02*
X65614694Y-93493790D01*
X65614694Y-93493790D02*
X65614694Y-93874742D01*
X65614694Y-93874742D02*
X65567075Y-93969980D01*
X65567075Y-93969980D02*
X65519456Y-94017600D01*
X65519456Y-94017600D02*
X65424218Y-94065219D01*
X65424218Y-94065219D02*
X65233742Y-94065219D01*
X65233742Y-94065219D02*
X65138504Y-94017600D01*
X65138504Y-94017600D02*
X65090885Y-93969980D01*
X65090885Y-93969980D02*
X65043266Y-93874742D01*
X65043266Y-93874742D02*
X65043266Y-93636647D01*
X65043266Y-93636647D02*
X65090885Y-93541409D01*
X65090885Y-93541409D02*
X65138504Y-93493790D01*
X65138504Y-93493790D02*
X65233742Y-93446171D01*
X65233742Y-93446171D02*
X65424218Y-93446171D01*
X65424218Y-93446171D02*
X65519456Y-93493790D01*
X65519456Y-93493790D02*
X65567075Y-93541409D01*
X65567075Y-93541409D02*
X65614694Y-93636647D01*
X67114694Y-54435219D02*
X67114694Y-53435219D01*
X67114694Y-53435219D02*
X66876599Y-53435219D01*
X66876599Y-53435219D02*
X66733742Y-53482838D01*
X66733742Y-53482838D02*
X66638504Y-53578076D01*
X66638504Y-53578076D02*
X66590885Y-53673314D01*
X66590885Y-53673314D02*
X66543266Y-53863790D01*
X66543266Y-53863790D02*
X66543266Y-54006647D01*
X66543266Y-54006647D02*
X66590885Y-54197123D01*
X66590885Y-54197123D02*
X66638504Y-54292361D01*
X66638504Y-54292361D02*
X66733742Y-54387600D01*
X66733742Y-54387600D02*
X66876599Y-54435219D01*
X66876599Y-54435219D02*
X67114694Y-54435219D01*
X65686123Y-53768552D02*
X65686123Y-54435219D01*
X65924218Y-53387600D02*
X66162313Y-54101885D01*
X66162313Y-54101885D02*
X65543266Y-54101885D01*
X122772194Y-50485219D02*
X122772194Y-49485219D01*
X122772194Y-49485219D02*
X122534099Y-49485219D01*
X122534099Y-49485219D02*
X122391242Y-49532838D01*
X122391242Y-49532838D02*
X122296004Y-49628076D01*
X122296004Y-49628076D02*
X122248385Y-49723314D01*
X122248385Y-49723314D02*
X122200766Y-49913790D01*
X122200766Y-49913790D02*
X122200766Y-50056647D01*
X122200766Y-50056647D02*
X122248385Y-50247123D01*
X122248385Y-50247123D02*
X122296004Y-50342361D01*
X122296004Y-50342361D02*
X122391242Y-50437600D01*
X122391242Y-50437600D02*
X122534099Y-50485219D01*
X122534099Y-50485219D02*
X122772194Y-50485219D01*
X121819813Y-49580457D02*
X121772194Y-49532838D01*
X121772194Y-49532838D02*
X121676956Y-49485219D01*
X121676956Y-49485219D02*
X121438861Y-49485219D01*
X121438861Y-49485219D02*
X121343623Y-49532838D01*
X121343623Y-49532838D02*
X121296004Y-49580457D01*
X121296004Y-49580457D02*
X121248385Y-49675695D01*
X121248385Y-49675695D02*
X121248385Y-49770933D01*
X121248385Y-49770933D02*
X121296004Y-49913790D01*
X121296004Y-49913790D02*
X121867432Y-50485219D01*
X121867432Y-50485219D02*
X121248385Y-50485219D01*
X95549932Y-66487600D02*
X95407075Y-66535219D01*
X95407075Y-66535219D02*
X95168980Y-66535219D01*
X95168980Y-66535219D02*
X95073742Y-66487600D01*
X95073742Y-66487600D02*
X95026123Y-66439980D01*
X95026123Y-66439980D02*
X94978504Y-66344742D01*
X94978504Y-66344742D02*
X94978504Y-66249504D01*
X94978504Y-66249504D02*
X95026123Y-66154266D01*
X95026123Y-66154266D02*
X95073742Y-66106647D01*
X95073742Y-66106647D02*
X95168980Y-66059028D01*
X95168980Y-66059028D02*
X95359456Y-66011409D01*
X95359456Y-66011409D02*
X95454694Y-65963790D01*
X95454694Y-65963790D02*
X95502313Y-65916171D01*
X95502313Y-65916171D02*
X95549932Y-65820933D01*
X95549932Y-65820933D02*
X95549932Y-65725695D01*
X95549932Y-65725695D02*
X95502313Y-65630457D01*
X95502313Y-65630457D02*
X95454694Y-65582838D01*
X95454694Y-65582838D02*
X95359456Y-65535219D01*
X95359456Y-65535219D02*
X95121361Y-65535219D01*
X95121361Y-65535219D02*
X94978504Y-65582838D01*
X94645170Y-65535219D02*
X94407075Y-66535219D01*
X94407075Y-66535219D02*
X94216599Y-65820933D01*
X94216599Y-65820933D02*
X94026123Y-66535219D01*
X94026123Y-66535219D02*
X93788028Y-65535219D01*
X93454694Y-65630457D02*
X93407075Y-65582838D01*
X93407075Y-65582838D02*
X93311837Y-65535219D01*
X93311837Y-65535219D02*
X93073742Y-65535219D01*
X93073742Y-65535219D02*
X92978504Y-65582838D01*
X92978504Y-65582838D02*
X92930885Y-65630457D01*
X92930885Y-65630457D02*
X92883266Y-65725695D01*
X92883266Y-65725695D02*
X92883266Y-65820933D01*
X92883266Y-65820933D02*
X92930885Y-65963790D01*
X92930885Y-65963790D02*
X93502313Y-66535219D01*
X93502313Y-66535219D02*
X92883266Y-66535219D01*
X126871419Y-103867542D02*
X126395228Y-103534209D01*
X126871419Y-103296114D02*
X125871419Y-103296114D01*
X125871419Y-103296114D02*
X125871419Y-103677066D01*
X125871419Y-103677066D02*
X125919038Y-103772304D01*
X125919038Y-103772304D02*
X125966657Y-103819923D01*
X125966657Y-103819923D02*
X126061895Y-103867542D01*
X126061895Y-103867542D02*
X126204752Y-103867542D01*
X126204752Y-103867542D02*
X126299990Y-103819923D01*
X126299990Y-103819923D02*
X126347609Y-103772304D01*
X126347609Y-103772304D02*
X126395228Y-103677066D01*
X126395228Y-103677066D02*
X126395228Y-103296114D01*
X126871419Y-104819923D02*
X126871419Y-104248495D01*
X126871419Y-104534209D02*
X125871419Y-104534209D01*
X125871419Y-104534209D02*
X126014276Y-104438971D01*
X126014276Y-104438971D02*
X126109514Y-104343733D01*
X126109514Y-104343733D02*
X126157133Y-104248495D01*
X126871419Y-105772304D02*
X126871419Y-105200876D01*
X126871419Y-105486590D02*
X125871419Y-105486590D01*
X125871419Y-105486590D02*
X126014276Y-105391352D01*
X126014276Y-105391352D02*
X126109514Y-105296114D01*
X126109514Y-105296114D02*
X126157133Y-105200876D01*
X123389932Y-66487600D02*
X123247075Y-66535219D01*
X123247075Y-66535219D02*
X123008980Y-66535219D01*
X123008980Y-66535219D02*
X122913742Y-66487600D01*
X122913742Y-66487600D02*
X122866123Y-66439980D01*
X122866123Y-66439980D02*
X122818504Y-66344742D01*
X122818504Y-66344742D02*
X122818504Y-66249504D01*
X122818504Y-66249504D02*
X122866123Y-66154266D01*
X122866123Y-66154266D02*
X122913742Y-66106647D01*
X122913742Y-66106647D02*
X123008980Y-66059028D01*
X123008980Y-66059028D02*
X123199456Y-66011409D01*
X123199456Y-66011409D02*
X123294694Y-65963790D01*
X123294694Y-65963790D02*
X123342313Y-65916171D01*
X123342313Y-65916171D02*
X123389932Y-65820933D01*
X123389932Y-65820933D02*
X123389932Y-65725695D01*
X123389932Y-65725695D02*
X123342313Y-65630457D01*
X123342313Y-65630457D02*
X123294694Y-65582838D01*
X123294694Y-65582838D02*
X123199456Y-65535219D01*
X123199456Y-65535219D02*
X122961361Y-65535219D01*
X122961361Y-65535219D02*
X122818504Y-65582838D01*
X122485170Y-65535219D02*
X122247075Y-66535219D01*
X122247075Y-66535219D02*
X122056599Y-65820933D01*
X122056599Y-65820933D02*
X121866123Y-66535219D01*
X121866123Y-66535219D02*
X121628028Y-65535219D01*
X120723266Y-66535219D02*
X121294694Y-66535219D01*
X121008980Y-66535219D02*
X121008980Y-65535219D01*
X121008980Y-65535219D02*
X121104218Y-65678076D01*
X121104218Y-65678076D02*
X121199456Y-65773314D01*
X121199456Y-65773314D02*
X121294694Y-65820933D01*
X67709932Y-66487600D02*
X67567075Y-66535219D01*
X67567075Y-66535219D02*
X67328980Y-66535219D01*
X67328980Y-66535219D02*
X67233742Y-66487600D01*
X67233742Y-66487600D02*
X67186123Y-66439980D01*
X67186123Y-66439980D02*
X67138504Y-66344742D01*
X67138504Y-66344742D02*
X67138504Y-66249504D01*
X67138504Y-66249504D02*
X67186123Y-66154266D01*
X67186123Y-66154266D02*
X67233742Y-66106647D01*
X67233742Y-66106647D02*
X67328980Y-66059028D01*
X67328980Y-66059028D02*
X67519456Y-66011409D01*
X67519456Y-66011409D02*
X67614694Y-65963790D01*
X67614694Y-65963790D02*
X67662313Y-65916171D01*
X67662313Y-65916171D02*
X67709932Y-65820933D01*
X67709932Y-65820933D02*
X67709932Y-65725695D01*
X67709932Y-65725695D02*
X67662313Y-65630457D01*
X67662313Y-65630457D02*
X67614694Y-65582838D01*
X67614694Y-65582838D02*
X67519456Y-65535219D01*
X67519456Y-65535219D02*
X67281361Y-65535219D01*
X67281361Y-65535219D02*
X67138504Y-65582838D01*
X66805170Y-65535219D02*
X66567075Y-66535219D01*
X66567075Y-66535219D02*
X66376599Y-65820933D01*
X66376599Y-65820933D02*
X66186123Y-66535219D01*
X66186123Y-66535219D02*
X65948028Y-65535219D01*
X65662313Y-65535219D02*
X65043266Y-65535219D01*
X65043266Y-65535219D02*
X65376599Y-65916171D01*
X65376599Y-65916171D02*
X65233742Y-65916171D01*
X65233742Y-65916171D02*
X65138504Y-65963790D01*
X65138504Y-65963790D02*
X65090885Y-66011409D01*
X65090885Y-66011409D02*
X65043266Y-66106647D01*
X65043266Y-66106647D02*
X65043266Y-66344742D01*
X65043266Y-66344742D02*
X65090885Y-66439980D01*
X65090885Y-66439980D02*
X65138504Y-66487600D01*
X65138504Y-66487600D02*
X65233742Y-66535219D01*
X65233742Y-66535219D02*
X65519456Y-66535219D01*
X65519456Y-66535219D02*
X65614694Y-66487600D01*
X65614694Y-66487600D02*
X65662313Y-66439980D01*
X39297194Y-105945219D02*
X39297194Y-104945219D01*
X39297194Y-104945219D02*
X39059099Y-104945219D01*
X39059099Y-104945219D02*
X38916242Y-104992838D01*
X38916242Y-104992838D02*
X38821004Y-105088076D01*
X38821004Y-105088076D02*
X38773385Y-105183314D01*
X38773385Y-105183314D02*
X38725766Y-105373790D01*
X38725766Y-105373790D02*
X38725766Y-105516647D01*
X38725766Y-105516647D02*
X38773385Y-105707123D01*
X38773385Y-105707123D02*
X38821004Y-105802361D01*
X38821004Y-105802361D02*
X38916242Y-105897600D01*
X38916242Y-105897600D02*
X39059099Y-105945219D01*
X39059099Y-105945219D02*
X39297194Y-105945219D01*
X37868623Y-104945219D02*
X38059099Y-104945219D01*
X38059099Y-104945219D02*
X38154337Y-104992838D01*
X38154337Y-104992838D02*
X38201956Y-105040457D01*
X38201956Y-105040457D02*
X38297194Y-105183314D01*
X38297194Y-105183314D02*
X38344813Y-105373790D01*
X38344813Y-105373790D02*
X38344813Y-105754742D01*
X38344813Y-105754742D02*
X38297194Y-105849980D01*
X38297194Y-105849980D02*
X38249575Y-105897600D01*
X38249575Y-105897600D02*
X38154337Y-105945219D01*
X38154337Y-105945219D02*
X37963861Y-105945219D01*
X37963861Y-105945219D02*
X37868623Y-105897600D01*
X37868623Y-105897600D02*
X37821004Y-105849980D01*
X37821004Y-105849980D02*
X37773385Y-105754742D01*
X37773385Y-105754742D02*
X37773385Y-105516647D01*
X37773385Y-105516647D02*
X37821004Y-105421409D01*
X37821004Y-105421409D02*
X37868623Y-105373790D01*
X37868623Y-105373790D02*
X37963861Y-105326171D01*
X37963861Y-105326171D02*
X38154337Y-105326171D01*
X38154337Y-105326171D02*
X38249575Y-105373790D01*
X38249575Y-105373790D02*
X38297194Y-105421409D01*
X38297194Y-105421409D02*
X38344813Y-105516647D01*
X39297194Y-54125219D02*
X39297194Y-53125219D01*
X39297194Y-53125219D02*
X39059099Y-53125219D01*
X39059099Y-53125219D02*
X38916242Y-53172838D01*
X38916242Y-53172838D02*
X38821004Y-53268076D01*
X38821004Y-53268076D02*
X38773385Y-53363314D01*
X38773385Y-53363314D02*
X38725766Y-53553790D01*
X38725766Y-53553790D02*
X38725766Y-53696647D01*
X38725766Y-53696647D02*
X38773385Y-53887123D01*
X38773385Y-53887123D02*
X38821004Y-53982361D01*
X38821004Y-53982361D02*
X38916242Y-54077600D01*
X38916242Y-54077600D02*
X39059099Y-54125219D01*
X39059099Y-54125219D02*
X39297194Y-54125219D01*
X37821004Y-53125219D02*
X38297194Y-53125219D01*
X38297194Y-53125219D02*
X38344813Y-53601409D01*
X38344813Y-53601409D02*
X38297194Y-53553790D01*
X38297194Y-53553790D02*
X38201956Y-53506171D01*
X38201956Y-53506171D02*
X37963861Y-53506171D01*
X37963861Y-53506171D02*
X37868623Y-53553790D01*
X37868623Y-53553790D02*
X37821004Y-53601409D01*
X37821004Y-53601409D02*
X37773385Y-53696647D01*
X37773385Y-53696647D02*
X37773385Y-53934742D01*
X37773385Y-53934742D02*
X37821004Y-54029980D01*
X37821004Y-54029980D02*
X37868623Y-54077600D01*
X37868623Y-54077600D02*
X37963861Y-54125219D01*
X37963861Y-54125219D02*
X38201956Y-54125219D01*
X38201956Y-54125219D02*
X38297194Y-54077600D01*
X38297194Y-54077600D02*
X38344813Y-54029980D01*
X94977194Y-54125219D02*
X94977194Y-53125219D01*
X94977194Y-53125219D02*
X94739099Y-53125219D01*
X94739099Y-53125219D02*
X94596242Y-53172838D01*
X94596242Y-53172838D02*
X94501004Y-53268076D01*
X94501004Y-53268076D02*
X94453385Y-53363314D01*
X94453385Y-53363314D02*
X94405766Y-53553790D01*
X94405766Y-53553790D02*
X94405766Y-53696647D01*
X94405766Y-53696647D02*
X94453385Y-53887123D01*
X94453385Y-53887123D02*
X94501004Y-53982361D01*
X94501004Y-53982361D02*
X94596242Y-54077600D01*
X94596242Y-54077600D02*
X94739099Y-54125219D01*
X94739099Y-54125219D02*
X94977194Y-54125219D01*
X94072432Y-53125219D02*
X93453385Y-53125219D01*
X93453385Y-53125219D02*
X93786718Y-53506171D01*
X93786718Y-53506171D02*
X93643861Y-53506171D01*
X93643861Y-53506171D02*
X93548623Y-53553790D01*
X93548623Y-53553790D02*
X93501004Y-53601409D01*
X93501004Y-53601409D02*
X93453385Y-53696647D01*
X93453385Y-53696647D02*
X93453385Y-53934742D01*
X93453385Y-53934742D02*
X93501004Y-54029980D01*
X93501004Y-54029980D02*
X93548623Y-54077600D01*
X93548623Y-54077600D02*
X93643861Y-54125219D01*
X93643861Y-54125219D02*
X93929575Y-54125219D01*
X93929575Y-54125219D02*
X94024813Y-54077600D01*
X94024813Y-54077600D02*
X94072432Y-54029980D01*
X60283266Y-109585219D02*
X60616599Y-109109028D01*
X60854694Y-109585219D02*
X60854694Y-108585219D01*
X60854694Y-108585219D02*
X60473742Y-108585219D01*
X60473742Y-108585219D02*
X60378504Y-108632838D01*
X60378504Y-108632838D02*
X60330885Y-108680457D01*
X60330885Y-108680457D02*
X60283266Y-108775695D01*
X60283266Y-108775695D02*
X60283266Y-108918552D01*
X60283266Y-108918552D02*
X60330885Y-109013790D01*
X60330885Y-109013790D02*
X60378504Y-109061409D01*
X60378504Y-109061409D02*
X60473742Y-109109028D01*
X60473742Y-109109028D02*
X60854694Y-109109028D01*
X59807075Y-109585219D02*
X59616599Y-109585219D01*
X59616599Y-109585219D02*
X59521361Y-109537600D01*
X59521361Y-109537600D02*
X59473742Y-109489980D01*
X59473742Y-109489980D02*
X59378504Y-109347123D01*
X59378504Y-109347123D02*
X59330885Y-109156647D01*
X59330885Y-109156647D02*
X59330885Y-108775695D01*
X59330885Y-108775695D02*
X59378504Y-108680457D01*
X59378504Y-108680457D02*
X59426123Y-108632838D01*
X59426123Y-108632838D02*
X59521361Y-108585219D01*
X59521361Y-108585219D02*
X59711837Y-108585219D01*
X59711837Y-108585219D02*
X59807075Y-108632838D01*
X59807075Y-108632838D02*
X59854694Y-108680457D01*
X59854694Y-108680457D02*
X59902313Y-108775695D01*
X59902313Y-108775695D02*
X59902313Y-109013790D01*
X59902313Y-109013790D02*
X59854694Y-109109028D01*
X59854694Y-109109028D02*
X59807075Y-109156647D01*
X59807075Y-109156647D02*
X59711837Y-109204266D01*
X59711837Y-109204266D02*
X59521361Y-109204266D01*
X59521361Y-109204266D02*
X59426123Y-109156647D01*
X59426123Y-109156647D02*
X59378504Y-109109028D01*
X59378504Y-109109028D02*
X59330885Y-109013790D01*
X39869932Y-66487600D02*
X39727075Y-66535219D01*
X39727075Y-66535219D02*
X39488980Y-66535219D01*
X39488980Y-66535219D02*
X39393742Y-66487600D01*
X39393742Y-66487600D02*
X39346123Y-66439980D01*
X39346123Y-66439980D02*
X39298504Y-66344742D01*
X39298504Y-66344742D02*
X39298504Y-66249504D01*
X39298504Y-66249504D02*
X39346123Y-66154266D01*
X39346123Y-66154266D02*
X39393742Y-66106647D01*
X39393742Y-66106647D02*
X39488980Y-66059028D01*
X39488980Y-66059028D02*
X39679456Y-66011409D01*
X39679456Y-66011409D02*
X39774694Y-65963790D01*
X39774694Y-65963790D02*
X39822313Y-65916171D01*
X39822313Y-65916171D02*
X39869932Y-65820933D01*
X39869932Y-65820933D02*
X39869932Y-65725695D01*
X39869932Y-65725695D02*
X39822313Y-65630457D01*
X39822313Y-65630457D02*
X39774694Y-65582838D01*
X39774694Y-65582838D02*
X39679456Y-65535219D01*
X39679456Y-65535219D02*
X39441361Y-65535219D01*
X39441361Y-65535219D02*
X39298504Y-65582838D01*
X38965170Y-65535219D02*
X38727075Y-66535219D01*
X38727075Y-66535219D02*
X38536599Y-65820933D01*
X38536599Y-65820933D02*
X38346123Y-66535219D01*
X38346123Y-66535219D02*
X38108028Y-65535219D01*
X37298504Y-65868552D02*
X37298504Y-66535219D01*
X37536599Y-65487600D02*
X37774694Y-66201885D01*
X37774694Y-66201885D02*
X37155647Y-66201885D01*
D12*
%TO.C,R10*%
X87339536Y-106400400D02*
X88793664Y-106400400D01*
X87339536Y-108220400D02*
X88793664Y-108220400D01*
%TO.C,D7*%
X64754100Y-106175400D02*
X68814100Y-106175400D01*
X68814100Y-106175400D02*
X68814100Y-108445400D01*
X68814100Y-108445400D02*
X64754100Y-108445400D01*
%TO.C,D8*%
X92594100Y-106175400D02*
X96654100Y-106175400D01*
X96654100Y-106175400D02*
X96654100Y-108445400D01*
X96654100Y-108445400D02*
X92594100Y-108445400D01*
%TO.C,R8*%
X32716600Y-105033336D02*
X32716600Y-106487464D01*
X34536600Y-105033336D02*
X34536600Y-106487464D01*
%TO.C,SW8*%
X118556600Y-98610400D02*
X118556600Y-97110400D01*
X119806600Y-94610400D02*
X124306600Y-94610400D01*
X124306600Y-101110400D02*
X119806600Y-101110400D01*
X125556600Y-97110400D02*
X125556600Y-98610400D01*
D11*
%TO.C,LOGO*%
X82836600Y-81205100D02*
X82836600Y-81205100D01*
X82836600Y-81205100D02*
X83136600Y-81205100D01*
X82915500Y-81015700D02*
X82836600Y-81205100D01*
X82994500Y-80826200D02*
X82915500Y-81015700D01*
X83073400Y-80636700D02*
X82994500Y-80826200D01*
X83136600Y-81205100D02*
X83436600Y-81205100D01*
X83152400Y-80447200D02*
X83073400Y-80636700D01*
X83231300Y-80257800D02*
X83152400Y-80447200D01*
X83436600Y-81205100D02*
X83736600Y-81205100D01*
X83736600Y-81205100D02*
X84036600Y-81205100D01*
X84036600Y-81205100D02*
X84336600Y-81205100D01*
X84257700Y-77794600D02*
X84178700Y-77984100D01*
X84336600Y-77605100D02*
X84257700Y-77794600D01*
X84336600Y-81205100D02*
X84636600Y-81205100D01*
X84415500Y-77415700D02*
X84336600Y-77605100D01*
X84415500Y-77415700D02*
X84415500Y-77415700D01*
X84494500Y-77510400D02*
X84415500Y-77415700D01*
X84573400Y-77605100D02*
X84494500Y-77510400D01*
X84636600Y-81205100D02*
X84936600Y-81205100D01*
X84652400Y-77699900D02*
X84573400Y-77605100D01*
X84731300Y-77794600D02*
X84652400Y-77699900D01*
X84810300Y-77889300D02*
X84731300Y-77794600D01*
X84889200Y-77984100D02*
X84810300Y-77889300D01*
X84936600Y-81205100D02*
X85236600Y-81205100D01*
X84968200Y-78078800D02*
X84889200Y-77984100D01*
X85047100Y-78173600D02*
X84968200Y-78078800D01*
X85126100Y-78268300D02*
X85047100Y-78173600D01*
X85205000Y-78363000D02*
X85126100Y-78268300D01*
X85236600Y-81205100D02*
X85536600Y-81205100D01*
X85284000Y-78457800D02*
X85205000Y-78363000D01*
X85362900Y-78552500D02*
X85284000Y-78457800D01*
X85441900Y-78647200D02*
X85362900Y-78552500D01*
X85520800Y-78742000D02*
X85441900Y-78647200D01*
X85536600Y-81205100D02*
X85836600Y-81205100D01*
X85599800Y-78836700D02*
X85520800Y-78742000D01*
X85678700Y-78931500D02*
X85599800Y-78836700D01*
X85757700Y-79026200D02*
X85678700Y-78931500D01*
X85836600Y-79120900D02*
X85757700Y-79026200D01*
X85836600Y-81205100D02*
X86136600Y-81205100D01*
X85915500Y-79215700D02*
X85836600Y-79120900D01*
X85994500Y-79310400D02*
X85915500Y-79215700D01*
X85994500Y-79310400D02*
X85994500Y-79310400D01*
X86041900Y-79247200D02*
X85994500Y-79310400D01*
X86089200Y-79184100D02*
X86041900Y-79247200D01*
X86136600Y-79120900D02*
X86089200Y-79184100D01*
X86136600Y-81205100D02*
X86436600Y-81205100D01*
X86184000Y-79057800D02*
X86136600Y-79120900D01*
X86231300Y-78994600D02*
X86184000Y-79057800D01*
X86278700Y-78931500D02*
X86231300Y-78994600D01*
X86326100Y-78868300D02*
X86278700Y-78931500D01*
X86373400Y-78805100D02*
X86326100Y-78868300D01*
X86420800Y-78742000D02*
X86373400Y-78805100D01*
X86436600Y-81205100D02*
X86736600Y-81205100D01*
X86468200Y-78678800D02*
X86420800Y-78742000D01*
X86515500Y-78615700D02*
X86468200Y-78678800D01*
X86562900Y-78552500D02*
X86515500Y-78615700D01*
X86610300Y-78489300D02*
X86562900Y-78552500D01*
X86657700Y-78426200D02*
X86610300Y-78489300D01*
X86705000Y-78363000D02*
X86657700Y-78426200D01*
X86736600Y-81205100D02*
X87036600Y-81205100D01*
X86752400Y-78299900D02*
X86705000Y-78363000D01*
X86799800Y-78236700D02*
X86752400Y-78299900D01*
X86847100Y-78173600D02*
X86799800Y-78236700D01*
X86894500Y-78110400D02*
X86847100Y-78173600D01*
X86941900Y-78047200D02*
X86894500Y-78110400D01*
X86941900Y-78047200D02*
X86941900Y-78047200D01*
X87036600Y-78205100D02*
X86941900Y-78047200D01*
X87036600Y-81205100D02*
X87336600Y-81205100D01*
X87131300Y-78363000D02*
X87036600Y-78205100D01*
X87226100Y-78520900D02*
X87131300Y-78363000D01*
X87320800Y-78678800D02*
X87226100Y-78520900D01*
X87336600Y-81205100D02*
X87636600Y-81205100D01*
X87415500Y-78836700D02*
X87320800Y-78678800D01*
X87510300Y-78994600D02*
X87415500Y-78836700D01*
X87605000Y-79152500D02*
X87510300Y-78994600D01*
X87636600Y-81205100D02*
X87936600Y-81205100D01*
X87699800Y-79310400D02*
X87605000Y-79152500D01*
X87794500Y-79468300D02*
X87699800Y-79310400D01*
X87889200Y-79626200D02*
X87794500Y-79468300D01*
X87984000Y-79784100D02*
X87889200Y-79626200D01*
X88078700Y-79942000D02*
X87984000Y-79784100D01*
X88173400Y-80099900D02*
X88078700Y-79942000D01*
X88268200Y-80257800D02*
X88173400Y-80099900D01*
X88362900Y-80415700D02*
X88268200Y-80257800D01*
X88457700Y-80573600D02*
X88362900Y-80415700D01*
X88536600Y-81205100D02*
X88836600Y-81205100D01*
X88552400Y-80731500D02*
X88457700Y-80573600D01*
X88647100Y-80889300D02*
X88552400Y-80731500D01*
X88741900Y-81047200D02*
X88647100Y-80889300D01*
X88836600Y-81205100D02*
X88741900Y-81047200D01*
D13*
G36*
X84170400Y-78221800D02*
G01*
X84231500Y-78276000D01*
X84257400Y-78353600D01*
X84241000Y-78433600D01*
X83881550Y-79152500D01*
X84257700Y-79152500D01*
X84330900Y-79170500D01*
X84387400Y-79220500D01*
X84414300Y-79290900D01*
X84405500Y-79365800D01*
X83931800Y-80629000D01*
X83884300Y-80695500D01*
X83809900Y-80729300D01*
X83728500Y-80721400D01*
X83662000Y-80673900D01*
X83628200Y-80599500D01*
X83636100Y-80518100D01*
X84029806Y-79468300D01*
X83626100Y-79468300D01*
X83549200Y-79448300D01*
X83491800Y-79393400D01*
X83468300Y-79317500D01*
X83484800Y-79239800D01*
X83958500Y-78292400D01*
X84012800Y-78231300D01*
X84090300Y-78205400D01*
X84170400Y-78221800D01*
G37*
G36*
X84259800Y-79533000D02*
G01*
X84383200Y-79551300D01*
X84503800Y-79581800D01*
X84621100Y-79624400D01*
X84734300Y-79678800D01*
X84843100Y-79744400D01*
X84947200Y-79820700D01*
X85046700Y-79907300D01*
X85141600Y-80003600D01*
X85227100Y-80103800D01*
X85302000Y-80191100D01*
X85372400Y-80262500D01*
X85443100Y-80324000D01*
X85514200Y-80376000D01*
X85585500Y-80418900D01*
X85657300Y-80453400D01*
X85730000Y-80479800D01*
X85804200Y-80498600D01*
X85880700Y-80510000D01*
X85960100Y-80513800D01*
X86043000Y-80509900D01*
X86129900Y-80498000D01*
X86221000Y-80477500D01*
X86316400Y-80448200D01*
X86416200Y-80409600D01*
X86528000Y-80357900D01*
X86619300Y-80317000D01*
X86721900Y-80281700D01*
X86827400Y-80255800D01*
X86935300Y-80239100D01*
X87045100Y-80231600D01*
X87156500Y-80233100D01*
X87269200Y-80243300D01*
X87383000Y-80262100D01*
X87497800Y-80289000D01*
X87613700Y-80324000D01*
X87730800Y-80366700D01*
X87849000Y-80417000D01*
X87968600Y-80474800D01*
X88089600Y-80539900D01*
X88212200Y-80612400D01*
X88333000Y-80690100D01*
X88415500Y-80780700D01*
X88441600Y-80900500D01*
X88404300Y-81017300D01*
X88313600Y-81099800D01*
X88193800Y-81125900D01*
X88077100Y-81088600D01*
X87963500Y-81015800D01*
X87856600Y-80952600D01*
X87753100Y-80896900D01*
X87653100Y-80848600D01*
X87556700Y-80807600D01*
X87464100Y-80773800D01*
X87375200Y-80747100D01*
X87290200Y-80727100D01*
X87209100Y-80713800D01*
X87131800Y-80706800D01*
X87058200Y-80705900D01*
X86987900Y-80710700D01*
X86920600Y-80721100D01*
X86855900Y-80737100D01*
X86793200Y-80758600D01*
X86724100Y-80789200D01*
X86601500Y-80846100D01*
X86471900Y-80896300D01*
X86342800Y-80936000D01*
X86214400Y-80964900D01*
X86086600Y-80982600D01*
X85959800Y-80988600D01*
X85834400Y-80982500D01*
X85711100Y-80964300D01*
X85590400Y-80933700D01*
X85473200Y-80891100D01*
X85359900Y-80836700D01*
X85251200Y-80771100D01*
X85147000Y-80694800D01*
X85047500Y-80608300D01*
X84952600Y-80511900D01*
X84867100Y-80411700D01*
X84792300Y-80324400D01*
X84721900Y-80253000D01*
X84651100Y-80191500D01*
X84580100Y-80139500D01*
X84508800Y-80096600D01*
X84437000Y-80062100D01*
X84364300Y-80035700D01*
X84290000Y-80016900D01*
X84213500Y-80005600D01*
X84134200Y-80001700D01*
X84051300Y-80005600D01*
X83964400Y-80017600D01*
X83873300Y-80038000D01*
X83777800Y-80067300D01*
X83678000Y-80105900D01*
X83567700Y-80156900D01*
X83446900Y-80177900D01*
X83331800Y-80135600D01*
X83253300Y-80041500D01*
X83232300Y-79920700D01*
X83274500Y-79805600D01*
X83368600Y-79727100D01*
X83492700Y-79669500D01*
X83622400Y-79619300D01*
X83751400Y-79579500D01*
X83879900Y-79550600D01*
X84007600Y-79533000D01*
X84134400Y-79527000D01*
X84259800Y-79533000D01*
G37*
D12*
%TO.C,R3*%
X115709536Y-50890400D02*
X117163664Y-50890400D01*
X115709536Y-52710400D02*
X117163664Y-52710400D01*
%TO.C,R7*%
X45213664Y-50940400D02*
X43759536Y-50940400D01*
X45213664Y-52760400D02*
X43759536Y-52760400D01*
%TO.C,SW5*%
X35036600Y-98610400D02*
X35036600Y-97110400D01*
X36286600Y-94610400D02*
X40786600Y-94610400D01*
X40786600Y-101110400D02*
X36286600Y-101110400D01*
X42036600Y-97110400D02*
X42036600Y-98610400D01*
%TO.C,D9*%
X119574100Y-106175400D02*
X123634100Y-106175400D01*
X119574100Y-108445400D02*
X119574100Y-106175400D01*
X123634100Y-108445400D02*
X119574100Y-108445400D01*
%TO.C,R6*%
X73383664Y-50940400D02*
X71929536Y-50940400D01*
X73383664Y-52760400D02*
X71929536Y-52760400D01*
%TO.C,R5*%
X100823664Y-50930400D02*
X99369536Y-50930400D01*
X100823664Y-52750400D02*
X99369536Y-52750400D01*
%TO.C,SW7*%
X90716600Y-98610400D02*
X90716600Y-97110400D01*
X91966600Y-94610400D02*
X96466600Y-94610400D01*
X96466600Y-101110400D02*
X91966600Y-101110400D01*
X97716600Y-97110400D02*
X97716600Y-98610400D01*
%TO.C,SW6*%
X62876600Y-98610400D02*
X62876600Y-97110400D01*
X64126600Y-94610400D02*
X68626600Y-94610400D01*
X68626600Y-101110400D02*
X64126600Y-101110400D01*
X69876600Y-97110400D02*
X69876600Y-98610400D01*
%TO.C,D4*%
X63939100Y-50715400D02*
X67999100Y-50715400D01*
X63939100Y-52985400D02*
X63939100Y-50715400D01*
X67999100Y-52985400D02*
X63939100Y-52985400D01*
%TO.C,D2*%
X120434100Y-50715400D02*
X124494100Y-50715400D01*
X124494100Y-50715400D02*
X124494100Y-52985400D01*
X124494100Y-52985400D02*
X120434100Y-52985400D01*
%TO.C,SW2*%
X90716600Y-62580400D02*
X90716600Y-61080400D01*
X91966600Y-58580400D02*
X96466600Y-58580400D01*
X96466600Y-65080400D02*
X91966600Y-65080400D01*
X97716600Y-61080400D02*
X97716600Y-62580400D01*
%TO.C,R11*%
X127326600Y-103783336D02*
X127326600Y-105237464D01*
X129146600Y-103783336D02*
X129146600Y-105237464D01*
%TO.C,SW1*%
X118556600Y-62580400D02*
X118556600Y-61080400D01*
X119806600Y-58580400D02*
X124306600Y-58580400D01*
X124306600Y-65080400D02*
X119806600Y-65080400D01*
X125556600Y-61080400D02*
X125556600Y-62580400D01*
%TO.C,SW3*%
X62876600Y-62580400D02*
X62876600Y-61080400D01*
X64126600Y-58580400D02*
X68626600Y-58580400D01*
X68626600Y-65080400D02*
X64126600Y-65080400D01*
X69876600Y-61080400D02*
X69876600Y-62580400D01*
%TO.C,D6*%
X36959100Y-106175400D02*
X41019100Y-106175400D01*
X41019100Y-106175400D02*
X41019100Y-108445400D01*
X41019100Y-108445400D02*
X36959100Y-108445400D01*
%TO.C,D5*%
X36099100Y-50715400D02*
X40159100Y-50715400D01*
X36099100Y-52985400D02*
X36099100Y-50715400D01*
X40159100Y-52985400D02*
X36099100Y-52985400D01*
%TO.C,D3*%
X91779100Y-50715400D02*
X95839100Y-50715400D01*
X91779100Y-52985400D02*
X91779100Y-50715400D01*
X95839100Y-52985400D02*
X91779100Y-52985400D01*
%TO.C,R9*%
X59389536Y-106400400D02*
X60843664Y-106400400D01*
X59389536Y-108220400D02*
X60843664Y-108220400D01*
%TO.C,SW4*%
X35036600Y-62580400D02*
X35036600Y-61080400D01*
X36286600Y-58580400D02*
X40786600Y-58580400D01*
X40786600Y-65080400D02*
X36286600Y-65080400D01*
X42036600Y-61080400D02*
X42036600Y-62580400D01*
%TD*%
M02*
