%TF.GenerationSoftware,KiCad,Pcbnew,9.0.7*%
%TF.CreationDate,2026-02-28T12:18:52-06:00*%
%TF.ProjectId,trailer-switch-panel-eight-buttons,74726169-6c65-4722-9d73-77697463682d,rev?*%
%TF.SameCoordinates,Original*%
%TF.FileFunction,Soldermask,Bot*%
%TF.FilePolarity,Negative*%
%FSLAX46Y46*%
G04 Gerber Fmt 4.6, Leading zero omitted, Abs format (unit mm)*
G04 Created by KiCad (PCBNEW 9.0.7) date 2026-02-28 12:18:52*
%MOMM*%
%LPD*%
G01*
G04 APERTURE LIST*
G04 Aperture macros list*
%AMRoundRect*
0 Rectangle with rounded corners*
0 $1 Rounding radius*
0 $2 $3 $4 $5 $6 $7 $8 $9 X,Y pos of 4 corners*
0 Add a 4 corners polygon primitive as box body*
4,1,4,$2,$3,$4,$5,$6,$7,$8,$9,$2,$3,0*
0 Add four circle primitives for the rounded corners*
1,1,$1+$1,$2,$3*
1,1,$1+$1,$4,$5*
1,1,$1+$1,$6,$7*
1,1,$1+$1,$8,$9*
0 Add four rect primitives between the rounded corners*
20,1,$1+$1,$2,$3,$4,$5,0*
20,1,$1+$1,$4,$5,$6,$7,0*
20,1,$1+$1,$6,$7,$8,$9,0*
20,1,$1+$1,$8,$9,$2,$3,0*%
G04 Aperture macros list end*
%ADD10RoundRect,0.250000X-0.400000X-0.625000X0.400000X-0.625000X0.400000X0.625000X-0.400000X0.625000X0*%
%ADD11RoundRect,0.250001X0.462499X0.624999X-0.462499X0.624999X-0.462499X-0.624999X0.462499X-0.624999X0*%
%ADD12RoundRect,0.250000X-0.625000X0.400000X-0.625000X-0.400000X0.625000X-0.400000X0.625000X0.400000X0*%
%ADD13C,2.000000*%
%ADD14RoundRect,0.250000X0.400000X0.625000X-0.400000X0.625000X-0.400000X-0.625000X0.400000X-0.625000X0*%
%ADD15RoundRect,0.250001X-0.462499X-0.624999X0.462499X-0.624999X0.462499X0.624999X-0.462499X0.624999X0*%
G04 APERTURE END LIST*
D10*
%TO.C,R10*%
X86516600Y-107310400D03*
X89616600Y-107310400D03*
%TD*%
D11*
%TO.C,D7*%
X67841600Y-107310400D03*
X64866600Y-107310400D03*
%TD*%
%TO.C,D8*%
X95681600Y-107310400D03*
X92706600Y-107310400D03*
%TD*%
D12*
%TO.C,R8*%
X33626600Y-104210400D03*
X33626600Y-107310400D03*
%TD*%
D13*
%TO.C,SW8*%
X125306600Y-95610400D03*
X118806600Y-95610400D03*
X125306600Y-100110400D03*
X118806600Y-100110400D03*
%TD*%
D10*
%TO.C,R3*%
X114886600Y-51800400D03*
X117986600Y-51800400D03*
%TD*%
D14*
%TO.C,R7*%
X46036600Y-51850400D03*
X42936600Y-51850400D03*
%TD*%
D13*
%TO.C,SW5*%
X41786600Y-95610400D03*
X35286600Y-95610400D03*
X41786600Y-100110400D03*
X35286600Y-100110400D03*
%TD*%
D15*
%TO.C,D9*%
X120546600Y-107310400D03*
X123521600Y-107310400D03*
%TD*%
D14*
%TO.C,R6*%
X74206600Y-51850400D03*
X71106600Y-51850400D03*
%TD*%
%TO.C,R5*%
X101646600Y-51840400D03*
X98546600Y-51840400D03*
%TD*%
D13*
%TO.C,SW7*%
X97466600Y-95610400D03*
X90966600Y-95610400D03*
X97466600Y-100110400D03*
X90966600Y-100110400D03*
%TD*%
%TO.C,SW6*%
X69626600Y-95610400D03*
X63126600Y-95610400D03*
X69626600Y-100110400D03*
X63126600Y-100110400D03*
%TD*%
D15*
%TO.C,D4*%
X64911600Y-51850400D03*
X67886600Y-51850400D03*
%TD*%
D11*
%TO.C,D2*%
X123521600Y-51850400D03*
X120546600Y-51850400D03*
%TD*%
D13*
%TO.C,SW2*%
X90966600Y-64080400D03*
X97466600Y-64080400D03*
X90966600Y-59580400D03*
X97466600Y-59580400D03*
%TD*%
D12*
%TO.C,R11*%
X128236600Y-102960400D03*
X128236600Y-106060400D03*
%TD*%
D13*
%TO.C,SW1*%
X118806600Y-64080400D03*
X125306600Y-64080400D03*
X118806600Y-59580400D03*
X125306600Y-59580400D03*
%TD*%
%TO.C,SW3*%
X63126600Y-64080400D03*
X69626600Y-64080400D03*
X63126600Y-59580400D03*
X69626600Y-59580400D03*
%TD*%
D11*
%TO.C,D6*%
X40046600Y-107310400D03*
X37071600Y-107310400D03*
%TD*%
D15*
%TO.C,D5*%
X37071600Y-51850400D03*
X40046600Y-51850400D03*
%TD*%
%TO.C,D3*%
X92751600Y-51850400D03*
X95726600Y-51850400D03*
%TD*%
D10*
%TO.C,R9*%
X58566600Y-107310400D03*
X61666600Y-107310400D03*
%TD*%
D13*
%TO.C,SW4*%
X35286600Y-64080400D03*
X41786600Y-64080400D03*
X35286600Y-59580400D03*
X41786600Y-59580400D03*
%TD*%
M02*
