M48
; DRILL file {KiCad 9.0.7} date 2026-02-28T12:18:55-0600
; FORMAT={-:-/ absolute / metric / decimal}
; #@! TF.CreationDate,2026-02-28T12:18:55-06:00
; #@! TF.GenerationSoftware,Kicad,Pcbnew,9.0.7
; #@! TF.FileFunction,Plated,1,2,PTH
FMAT,2
METRIC
; #@! TA.AperFunction,Plated,PTH,ComponentDrill
T1C0.200
; #@! TA.AperFunction,Plated,PTH,ViaDrill
T2C0.300
; #@! TA.AperFunction,Plated,PTH,ViaDrill
T3C0.400
; #@! TA.AperFunction,Plated,PTH,ComponentDrill
T4C1.100
%
G90
G05
T1
X93.517Y-77.605
X93.517Y-79.005
X94.217Y-76.905
X94.217Y-78.305
X94.217Y-79.705
X94.917Y-77.605
X94.917Y-79.005
X95.617Y-76.905
X95.617Y-78.305
X95.617Y-79.705
X96.317Y-77.605
X96.317Y-79.005
T2
X32.107Y-101.64
X44.237Y-103.11
X44.237Y-105.11
X44.237Y-107.11
X44.237Y-109.11
X45.017Y-86.6
X46.037Y-54.19
X46.237Y-95.11
X46.237Y-97.11
X46.237Y-99.11
X46.237Y-101.11
X46.237Y-103.11
X46.237Y-105.11
X46.237Y-107.11
X46.237Y-109.11
X48.237Y-95.11
X48.237Y-97.11
X48.237Y-99.11
X48.237Y-101.11
X48.237Y-103.11
X48.237Y-105.11
X48.237Y-107.11
X48.237Y-109.11
X50.237Y-95.11
X50.237Y-97.11
X50.237Y-99.11
X50.237Y-101.11
X50.237Y-103.11
X50.237Y-105.11
X50.237Y-107.11
X50.237Y-109.11
X52.237Y-95.11
X52.237Y-97.11
X52.237Y-99.11
X52.237Y-101.11
X52.237Y-103.11
X52.237Y-105.11
X52.237Y-107.11
X52.237Y-109.11
X54.237Y-95.11
X54.237Y-97.11
X54.237Y-99.11
X54.237Y-101.11
X54.237Y-103.11
X54.237Y-105.11
X54.237Y-107.11
X54.237Y-109.11
X56.037Y-92.31
X58.567Y-100.11
X58.837Y-93.51
X59.037Y-86.31
X60.437Y-87.71
X70.397Y-82.85
X72.237Y-99.11
X72.237Y-101.11
X74.187Y-53.92
X74.237Y-95.11
X74.237Y-97.11
X74.237Y-99.11
X74.237Y-101.11
X74.237Y-103.11
X76.237Y-95.11
X76.237Y-97.11
X76.237Y-99.11
X76.237Y-101.11
X76.237Y-103.11
X76.237Y-105.11
X78.237Y-95.11
X78.237Y-97.11
X78.237Y-99.11
X78.237Y-101.11
X78.237Y-103.11
X78.237Y-105.11
X80.237Y-95.11
X80.237Y-97.11
X80.237Y-99.11
X80.237Y-101.11
X80.237Y-103.11
X80.237Y-105.11
X82.237Y-95.11
X82.237Y-97.11
X82.237Y-99.11
X82.237Y-101.11
X82.237Y-103.11
X82.237Y-105.11
X84.237Y-95.11
X84.237Y-97.11
X84.237Y-99.11
X84.237Y-101.11
X84.237Y-103.11
X84.237Y-105.11
X86.517Y-104.82
X87.337Y-74.41
X88.237Y-99.11
X88.237Y-101.11
X90.237Y-103.11
X92.237Y-103.11
X94.237Y-103.11
X96.237Y-103.11
X98.237Y-103.11
X100.237Y-99.11
X100.237Y-101.11
X101.647Y-54.28
X105.097Y-69.02
X106.437Y-108.51
X109.837Y-89.11
X112.237Y-89.11
X112.237Y-97.11
X112.237Y-99.11
X114.237Y-89.11
X114.237Y-97.11
X114.237Y-99.11
X114.237Y-101.11
X114.897Y-54.09
X116.237Y-89.11
X116.237Y-97.11
X116.237Y-99.11
X116.237Y-101.11
X116.237Y-103.11
X118.237Y-89.11
X118.237Y-103.11
X120.237Y-89.11
X120.237Y-103.11
X122.037Y-89.11
X122.237Y-103.11
X124.237Y-89.11
X124.237Y-103.11
X126.237Y-89.11
X128.237Y-89.71
X130.237Y-91.31
X132.037Y-92.91
X133.637Y-94.31
X133.637Y-96.31
X133.637Y-98.11
X133.637Y-99.91
X133.637Y-101.71
X133.637Y-103.31
X133.637Y-104.91
X135.437Y-96.31
X135.437Y-98.11
X135.437Y-99.91
X135.437Y-101.71
X135.437Y-103.31
X135.437Y-104.91
T3
X53.297Y-75.66
X72.877Y-77.82
X130.557Y-101.81
T4
X35.287Y-59.58
X35.287Y-64.08
X35.287Y-95.61
X35.287Y-100.11
X41.787Y-59.58
X41.787Y-64.08
X41.787Y-95.61
X41.787Y-100.11
X63.127Y-59.58
X63.127Y-64.08
X63.127Y-95.61
X63.127Y-100.11
X69.627Y-59.58
X69.627Y-64.08
X69.627Y-95.61
X69.627Y-100.11
X90.967Y-59.58
X90.967Y-64.08
X90.967Y-95.61
X90.967Y-100.11
X97.467Y-59.58
X97.467Y-64.08
X97.467Y-95.61
X97.467Y-100.11
X118.807Y-59.58
X118.807Y-64.08
X118.807Y-95.61
X118.807Y-100.11
X125.307Y-59.58
X125.307Y-64.08
X125.307Y-95.61
X125.307Y-100.11
M30
