%TF.GenerationSoftware,KiCad,Pcbnew,9.0.7*%
%TF.CreationDate,2026-02-28T12:18:52-06:00*%
%TF.ProjectId,trailer-switch-panel-eight-buttons,74726169-6c65-4722-9d73-77697463682d,rev?*%
%TF.SameCoordinates,Original*%
%TF.FileFunction,Soldermask,Top*%
%TF.FilePolarity,Negative*%
%FSLAX46Y46*%
G04 Gerber Fmt 4.6, Leading zero omitted, Abs format (unit mm)*
G04 Created by KiCad (PCBNEW 9.0.7) date 2026-02-28 12:18:52*
%MOMM*%
%LPD*%
G01*
G04 APERTURE LIST*
G04 Aperture macros list*
%AMRoundRect*
0 Rectangle with rounded corners*
0 $1 Rounding radius*
0 $2 $3 $4 $5 $6 $7 $8 $9 X,Y pos of 4 corners*
0 Add a 4 corners polygon primitive as box body*
4,1,4,$2,$3,$4,$5,$6,$7,$8,$9,$2,$3,0*
0 Add four circle primitives for the rounded corners*
1,1,$1+$1,$2,$3*
1,1,$1+$1,$4,$5*
1,1,$1+$1,$6,$7*
1,1,$1+$1,$8,$9*
0 Add four rect primitives between the rounded corners*
20,1,$1+$1,$2,$3,$4,$5,0*
20,1,$1+$1,$4,$5,$6,$7,0*
20,1,$1+$1,$6,$7,$8,$9,0*
20,1,$1+$1,$8,$9,$2,$3,0*%
G04 Aperture macros list end*
%ADD10RoundRect,0.250000X0.412500X0.650000X-0.412500X0.650000X-0.412500X-0.650000X0.412500X-0.650000X0*%
%ADD11R,1.000000X0.700000*%
%ADD12R,0.900000X1.500000*%
%ADD13R,1.500000X0.900000*%
%ADD14C,0.600000*%
%ADD15R,3.800000X3.800000*%
%ADD16RoundRect,0.150000X0.825000X0.150000X-0.825000X0.150000X-0.825000X-0.150000X0.825000X-0.150000X0*%
%ADD17RoundRect,0.250000X-0.325000X-0.650000X0.325000X-0.650000X0.325000X0.650000X-0.325000X0.650000X0*%
%ADD18RoundRect,0.250000X0.400000X0.625000X-0.400000X0.625000X-0.400000X-0.625000X0.400000X-0.625000X0*%
%ADD19RoundRect,0.250000X0.625000X-0.400000X0.625000X0.400000X-0.625000X0.400000X-0.625000X-0.400000X0*%
%ADD20RoundRect,0.102000X-0.650000X-2.250000X0.650000X-2.250000X0.650000X2.250000X-0.650000X2.250000X0*%
%ADD21RoundRect,0.102000X-0.900000X-1.950000X0.900000X-1.950000X0.900000X1.950000X-0.900000X1.950000X0*%
%ADD22R,1.400000X1.950000*%
%ADD23RoundRect,0.250001X-0.624999X0.462499X-0.624999X-0.462499X0.624999X-0.462499X0.624999X0.462499X0*%
%ADD24RoundRect,0.102000X2.250000X-0.650000X2.250000X0.650000X-2.250000X0.650000X-2.250000X-0.650000X0*%
%ADD25RoundRect,0.102000X1.950000X-0.900000X1.950000X0.900000X-1.950000X0.900000X-1.950000X-0.900000X0*%
%ADD26RoundRect,0.250000X-0.400000X-0.625000X0.400000X-0.625000X0.400000X0.625000X-0.400000X0.625000X0*%
%ADD27C,2.000000*%
G04 APERTURE END LIST*
D10*
%TO.C,C6*%
X49362500Y-83068400D03*
X46237500Y-83068400D03*
%TD*%
D11*
%TO.C,IC1*%
X41263600Y-79200400D03*
X41263600Y-80150400D03*
X41263600Y-81100400D03*
X43461600Y-81100400D03*
X43461600Y-80150400D03*
X43461600Y-79200400D03*
%TD*%
D12*
%TO.C,U1*%
X102481600Y-71055400D03*
X101211600Y-71055400D03*
X99941600Y-71055400D03*
X98671600Y-71055400D03*
X97401600Y-71055400D03*
X96131600Y-71055400D03*
X94861600Y-71055400D03*
X93591600Y-71055400D03*
X92321600Y-71055400D03*
X91051600Y-71055400D03*
X89781600Y-71055400D03*
X88511600Y-71055400D03*
X87241600Y-71055400D03*
X85971600Y-71055400D03*
D13*
X84876600Y-74090400D03*
X84876600Y-75360400D03*
X84876600Y-76630400D03*
X84876600Y-77900400D03*
X84876600Y-79170400D03*
X84876600Y-80440400D03*
X84876600Y-81710400D03*
X84876600Y-82980400D03*
X84876600Y-84250400D03*
X84876600Y-85520400D03*
D12*
X85971600Y-88555400D03*
X87241600Y-88555400D03*
X88511600Y-88555400D03*
X89781600Y-88555400D03*
X91051600Y-88555400D03*
X92321600Y-88555400D03*
X93591600Y-88555400D03*
X94861600Y-88555400D03*
X96131600Y-88555400D03*
X97401600Y-88555400D03*
X98671600Y-88555400D03*
X99941600Y-88555400D03*
X101211600Y-88555400D03*
X102481600Y-88555400D03*
D14*
X95616600Y-76905400D03*
X94216600Y-76905400D03*
X96316600Y-77605400D03*
X94916600Y-77605400D03*
X93516600Y-77605400D03*
X95616600Y-78305400D03*
D15*
X94916600Y-78305400D03*
D14*
X94216600Y-78305400D03*
X96316600Y-79005400D03*
X94916600Y-79005400D03*
X93516600Y-79005400D03*
X95616600Y-79705400D03*
X94216600Y-79705400D03*
%TD*%
D16*
%TO.C,U2*%
X70336600Y-79136800D03*
X70336600Y-77866800D03*
X70336600Y-76596800D03*
X70336600Y-75326800D03*
X65386600Y-75326800D03*
X65386600Y-76596800D03*
X65386600Y-77866800D03*
X65386600Y-79136800D03*
%TD*%
D10*
%TO.C,C5*%
X49362500Y-80626400D03*
X46237500Y-80626400D03*
%TD*%
D17*
%TO.C,C4*%
X41136600Y-76464400D03*
X44086600Y-76464400D03*
%TD*%
%TO.C,C3*%
X41136600Y-83830400D03*
X44086600Y-83830400D03*
%TD*%
D18*
%TO.C,R4*%
X68756600Y-82860400D03*
X65656600Y-82860400D03*
%TD*%
D19*
%TO.C,R1*%
X116786600Y-70770400D03*
X116786600Y-67670400D03*
%TD*%
D10*
%TO.C,C1*%
X111319100Y-71940400D03*
X108194100Y-71940400D03*
%TD*%
D20*
%TO.C,J1*%
X104486600Y-103800000D03*
X106986600Y-103800000D03*
X109486600Y-103800000D03*
X111986600Y-103800000D03*
D21*
X101286600Y-110600000D03*
X115186600Y-110600000D03*
%TD*%
D19*
%TO.C,R2*%
X55856600Y-83950400D03*
X55856600Y-80850400D03*
%TD*%
D22*
%TO.C,L1*%
X46270000Y-77734400D03*
X49270000Y-77734400D03*
%TD*%
D10*
%TO.C,C2*%
X111319100Y-69400400D03*
X108194100Y-69400400D03*
%TD*%
D23*
%TO.C,D1*%
X55838800Y-75886000D03*
X55838800Y-78861000D03*
%TD*%
D24*
%TO.C,J3*%
X128800000Y-85560400D03*
X128800000Y-83060400D03*
X128800000Y-80560400D03*
X128800000Y-78060400D03*
X128800000Y-75560400D03*
X128800000Y-73060400D03*
D25*
X135600000Y-88760400D03*
X135600000Y-69860400D03*
%TD*%
D26*
%TO.C,R12*%
X129966600Y-64070400D03*
X133066600Y-64070400D03*
%TD*%
D27*
%TO.C,SW8*%
X125306600Y-95610400D03*
X118806600Y-95610400D03*
X125306600Y-100110400D03*
X118806600Y-100110400D03*
%TD*%
%TO.C,SW5*%
X41786600Y-95610400D03*
X35286600Y-95610400D03*
X41786600Y-100110400D03*
X35286600Y-100110400D03*
%TD*%
%TO.C,SW7*%
X97466600Y-95610400D03*
X90966600Y-95610400D03*
X97466600Y-100110400D03*
X90966600Y-100110400D03*
%TD*%
%TO.C,SW6*%
X69626600Y-95610400D03*
X63126600Y-95610400D03*
X69626600Y-100110400D03*
X63126600Y-100110400D03*
%TD*%
%TO.C,SW2*%
X90966600Y-64080400D03*
X97466600Y-64080400D03*
X90966600Y-59580400D03*
X97466600Y-59580400D03*
%TD*%
%TO.C,SW1*%
X118806600Y-64080400D03*
X125306600Y-64080400D03*
X118806600Y-59580400D03*
X125306600Y-59580400D03*
%TD*%
%TO.C,SW3*%
X63126600Y-64080400D03*
X69626600Y-64080400D03*
X63126600Y-59580400D03*
X69626600Y-59580400D03*
%TD*%
%TO.C,SW4*%
X35286600Y-64080400D03*
X41786600Y-64080400D03*
X35286600Y-59580400D03*
X41786600Y-59580400D03*
%TD*%
M02*
